<svg width="32" height="32" viewBox="0 0 32 32" fill="none" xmlns="http://www.w3.org/2000/svg">
<rect width="32" height="32" rx="16" fill="#0D6EFD"/>
<path d="M11.532 25.6V9.724H11L11.392 6H16.74C18.1773 6 19.204 6.31733 19.82 6.952C20.4547 7.568 20.772 8.58533 20.772 10.004V13.672C20.772 14.232 20.7253 14.7267 20.632 15.156C21.0987 15.772 21.332 16.7053 21.332 17.956V21.596C21.332 23.0147 21.0147 24.0413 20.38 24.676C19.764 25.292 18.7373 25.6 17.3 25.6H11.532ZM16.824 13.952C16.9173 13.952 16.964 13.9053 16.964 13.812V9.864C16.964 9.77067 16.9173 9.724 16.824 9.724H15.34V13.952H16.824ZM17.524 17.816C17.524 17.7227 17.4773 17.676 17.384 17.676H15.34V21.876H17.384C17.4773 21.876 17.524 21.8293 17.524 21.736V17.816Z" fill="white"/>
</svg>
